<mxfile host="app.diagrams.net" modified="2023-09-22T06:24:42.069Z" agent="Mozilla/5.0 (X11; Linux x86_64) AppleWebKit/537.36 (KHTML, like Gecko) Chrome/117.0.0.0 Safari/537.36" version="21.8.0" etag="3s7tz7Gb4OPuQ_yMb_1z" type="github">
  <diagram name="第 1 页" id="OA-q3FZ5pMCMF144NAtn">
    <mxGraphModel>
      <root>
        <mxCell id="0" />
        <mxCell id="1" parent="0" />
      </root>
    </mxGraphModel>
  </diagram>
</mxfile>
